<svg id="图层_1" data-name="图层 1" xmlns="http://www.w3.org/2000/svg" viewBox="0 0 900.5 214.22"><defs><style>.cls-1{fill:#f7fbff;stroke:#9ecdff;stroke-miterlimit:10;}.cls-2{fill:#cbe1fe;}.cls-3{fill:#a7e0dd;}.cls-4{fill:#98c4e6;}.cls-5{font-size:5.86px;}.cls-5,.cls-6{font-family:MicrosoftYaHei-Bold, Microsoft YaHei;font-weight:700;}.cls-6{font-size:7.32px;}.cls-7{fill:#88c76d;}.cls-8{fill:#e9e9e9;}.cls-9{fill:#fec7e1;}.cls-10{fill:#77bce9;}.cls-11{fill:#608fca;}.cls-12{fill:#c89dc8;}.cls-13{fill:#a8dbdb;}.cls-14{fill:#fff;}.cls-15{fill:#231f20;}</style></defs><title>六层平面图900px</title><path class="cls-1" d="M920.74,55,890.36,156.68H749.12V170H613.89v-9.39l-94,8.74-110.59-8.61v-9.39l-45-7.56V96H344.59V97.6l-148.54,4V268.18H1087.8V55ZM688,230.21H635.47V208.4H688Zm331.13-106.46-1.07.16v13.87H958.68v-8.4l-1.15.07v-26h61.64Z" transform="translate(-195.55 -54.46)"/><rect class="cls-2" x="1.62" y="118.56" width="51.49" height="92.85"/><rect class="cls-2" x="53.11" y="185.58" width="126.21" height="25.83"/><polygon class="cls-3" points="1.62 48.19 147.03 44.1 147.03 86.83 211.25 97.58 211.25 106.34 209.49 106.34 209.49 114.31 193.97 114.31 189.89 105.06 1.62 89 1.62 48.19"/><polygon class="cls-4" points="307.85 114.58 307.85 139.08 353.35 139.08 353.35 112.83 323.95 115.75 307.85 114.58"/><polygon class="cls-2" points="210.79 106.84 306.95 114.31 306.95 140.2 61.92 140.2 61.92 118.56 211.25 118.56 210.79 106.84"/><text class="cls-5" transform="translate(326.67 127.19)">仓库</text><text class="cls-6" transform="translate(16.38 167.18)">独立店</text><text class="cls-6" transform="translate(65.3 72.81)">平台1</text><text class="cls-6" transform="translate(101.57 200.69)">道具墙店</text><text class="cls-5" transform="translate(251.01 124.7)">笔记本区</text><polygon class="cls-3" points="180.89 150.28 208.57 150.28 208.57 152.81 233.71 211.41 180.89 211.41 180.89 150.28"/><text class="cls-6" transform="translate(197.72 201.35)">平台2</text><polygon class="cls-2" points="210.98 150.28 244.26 150.28 244.26 178.62 306.06 178.62 306.06 211.36 235.75 211.36 209.4 150.28 210.98 150.28"/><text class="cls-6" transform="translate(252.1 199.86)">平板区</text><rect class="cls-7" x="403.39" y="149.32" width="12.6" height="26.3"/><rect class="cls-7" x="513.76" y="151.57" width="12.6" height="23.41"/><rect class="cls-7" x="604.57" y="149.13" width="12.6" height="29.61"/><rect class="cls-8" x="554.26" y="149.13" width="44.62" height="29.61"/><rect class="cls-9" x="93.49" y="149.32" width="20.91" height="29.3"/><polygon class="cls-10" points="629.09 107.49 629.09 103.16 567.91 103.16 554.09 103.16 554.09 115.86 485.81 115.86 489.3 138.41 499.94 138.41 499.94 134.44 567.91 134.44 567.91 107.67 623.02 107.67 623.02 140.36 629.27 140.36 629.27 107.49 629.09 107.49"/><polygon class="cls-2" points="353.35 139.08 415.99 139.08 415.99 107.35 353.35 112.83 353.35 139.08"/><text class="cls-6" transform="translate(492.32 127.24)">智能出行动态展示区</text><rect class="cls-10" x="513.76" y="175.15" width="28.98" height="22.2"/><rect class="cls-10" x="566.02" y="191.47" width="63.25" height="19.48"/><polygon class="cls-11" points="633.74 191.65 633.74 210.94 856.34 210.94 856.34 194.44 844.71 194.49 844.71 191.65 633.74 191.65"/><rect class="cls-11" x="715.25" y="154.01" width="16.58" height="27.1"/><polygon class="cls-11" points="747.37 166.49 794.88 166.49 794.88 181.11 807.32 181.11 807.32 153.72 794.88 153.72 794.88 153.65 747.37 153.65 731.83 153.65 731.83 181.11 747.37 181.11 747.37 166.49"/><polygon class="cls-12" points="760.87 88.42 758.34 88.42 758.34 76.1 702.55 81.34 698.23 105.41 760.87 105.41 760.87 88.42"/><rect class="cls-12" x="762.13" y="87.84" width="62.11" height="17.33"/><rect class="cls-12" x="760.87" y="115.46" width="63.37" height="34.74"/><polygon class="cls-12" points="888.42 66.42 845 69.42 845 131.17 888.52 131.17 888.42 66.42"/><polygon class="cls-8" points="891.02 210.94 856.23 210.94 856.34 194.44 844.71 194.49 844.71 184.46 891.02 184.46 891.02 210.94"/><rect class="cls-8" x="845.37" y="149.06" width="46.31" height="29.86"/><polygon class="cls-13" points="439.4 174.98 439.4 153.17 488.68 153.17 483.35 117.81 417.99 117.81 417.99 211.16 497.43 211.16 491.97 174.98 439.4 174.98"/><text class="cls-6" transform="translate(440.13 203.22)">咖啡店用平台</text><text class="cls-6" transform="translate(715.75 202.85)">机器人动态展示区</text><text class="cls-6" transform="translate(715.48 94.67)">无人机区</text><polygon class="cls-3" points="703.15 79.54 761.46 74.23 761.46 47.34 824.24 47.34 824.24 68.54 890.7 61.9 890.7 2.08 726.08 2.08 703.15 79.54"/><text class="cls-6" transform="translate(783.55 32.5)">平台4</text><polygon class="cls-9" points="891.02 187.84 871.85 187.84 871.85 184.46 844.74 184.46 844.71 194.49 856.34 194.44 856.34 210.94 891.02 210.94 891.02 187.84"/><rect class="cls-7" x="845.37" y="149.06" width="26.08" height="23.92"/><rect class="cls-7" x="877.06" y="154.01" width="12.07" height="24.12"/><polygon class="cls-8" points="629.43 148.81 629.43 175.74 664.96 175.74 664.96 178.92 703.63 178.92 703.63 175.74 703.63 175.67 703.63 148.81 629.43 148.81"/><rect class="cls-7" x="643.58" y="122.06" width="42.71" height="12.69"/><rect class="cls-7" x="697.29" y="122.06" width="41" height="12.69"/><rect class="cls-7" x="119.98" y="162.68" width="28.09" height="13.14"/><rect class="cls-7" x="675.16" y="149.13" width="14.59" height="29.61"/><rect class="cls-7" x="336.83" y="210.17" width="29.51" height="15.96" transform="translate(374.2 -187.89) rotate(90)"/><rect class="cls-7" x="331.81" y="110.36" width="42.23" height="18.62" transform="translate(277.05 -287.7) rotate(90)"/><rect class="cls-7" x="289.04" y="156.76" width="51.27" height="14.27" transform="translate(433.8 273.33) rotate(180)"/><rect class="cls-7" x="440.56" y="205.09" width="44.33" height="20.06" transform="translate(729.9 375.8) rotate(180)"/><polygon class="cls-8" points="383.63 149.32 383.63 176.61 341.77 176.61 341.77 178.62 306.33 178.62 306.33 149.32 383.63 149.32"/><rect class="cls-7" x="540.25" y="205.24" width="26.67" height="22.98" transform="translate(141.31 715.87) rotate(-90)"/><rect class="cls-7" x="371.03" y="149.32" width="12.6" height="26.3"/><rect class="cls-7" x="584.29" y="149.13" width="14.59" height="29.61"/><rect class="cls-7" x="633.56" y="155.03" width="30.8" height="20.71"/><rect class="cls-7" x="516.43" y="208.3" width="24.76" height="15.7" transform="translate(117.11 690.51) rotate(-90)"/><polygon class="cls-2" points="415.99 190.8 415.99 211.36 306.33 211.36 306.33 178.62 341.77 178.62 341.77 176.61 383.4 176.61 383.4 190.95 415.99 190.8"/><text class="cls-6" transform="translate(344.16 200.56)">咖啡店</text><rect class="cls-14" x="153.58" y="50.7" width="10.25" height="10.25" rx="1.19" ry="1.19"/><path class="cls-15" d="M354.35,108.39a.45.45,0,0,1-.45.44.45.45,0,1,1,0-.89A.45.45,0,0,1,354.35,108.39Z" transform="translate(-195.55 -54.46)"/><path class="cls-14" d="M351.66,113.32a.81.81,0,1,1,0-1.61h.86l3.11-3h0l.05,0,0,0,0,0,.06,0h0a.86.86,0,0,1,.41-.1h1.05a.81.81,0,1,1,0,1.61h-.72l-3,3a1,1,0,0,1-.19.17.89.89,0,0,1-.43.15h-1.26Z" transform="translate(-195.55 -54.46)"/><path class="cls-15" d="M357.29,108.58a.66.66,0,1,1,0,1.32h-.79l-3.08,3a.5.5,0,0,1-.15.14.72.72,0,0,1-.36.13h-1.25a.67.67,0,1,1,0-1.32h.93l3.15-3.07h0l.05,0,0,0,0,0,0,0h0a.78.78,0,0,1,.34-.09h1.05m0-.29h-1.05a1,1,0,0,0-.48.12h0l-.06,0,0,0h0l0,0-.07,0h0l0,0-3.06,3h-.8a1,1,0,1,0,0,1.91h1.28a1.12,1.12,0,0,0,.5-.18,1.29,1.29,0,0,0,.21-.19l3-2.9h.66a1,1,0,1,0,0-1.91Z" transform="translate(-195.55 -54.46)"/><path class="cls-15" d="M354.34,109.53v-.19a.45.45,0,0,0-.89,0v1s0,0,0,0Z" transform="translate(-195.55 -54.46)"/><path class="cls-15" d="M357.29,108.58a.66.66,0,1,1,0,1.32h-.79l-3.08,3a.5.5,0,0,1-.15.14.72.72,0,0,1-.36.13h-1.25a.67.67,0,1,1,0-1.32h.93l3.15-3.07h0l.05,0,0,0,0,0,0,0h0a.78.78,0,0,1,.34-.09h1.05m0-.29h-1.05a1,1,0,0,0-.48.12h0l-.06,0,0,0h0l0,0-.07,0h0l0,0-3.06,3h-.8a1,1,0,1,0,0,1.91h1.28a1.12,1.12,0,0,0,.5-.18,1.29,1.29,0,0,0,.21-.19l3-2.9h.66a1,1,0,1,0,0-1.91Z" transform="translate(-195.55 -54.46)"/><text class="cls-5" transform="translate(149.28 70.35)">扶手电梯</text><rect class="cls-14" x="99.42" y="104.31" width="10.25" height="10.25" rx="1.19" ry="1.19"/><path class="cls-15" d="M300.19,162a.44.44,0,0,1-.45.44.45.45,0,0,1-.46-.44.45.45,0,0,1,.46-.44A.45.45,0,0,1,300.19,162Z" transform="translate(-195.55 -54.46)"/><path class="cls-14" d="M297.5,166.94a.81.81,0,1,1,0-1.61h.86l3.11-3v0h0s0,0,.05-.05l0,0,0,0,.06,0h0a.86.86,0,0,1,.41-.1h1.05a.81.81,0,1,1,0,1.61h-.72l-3,3a1,1,0,0,1-.19.16.8.8,0,0,1-.43.15H297.5Z" transform="translate(-195.55 -54.46)"/><path class="cls-15" d="M303.13,162.2a.66.66,0,1,1,0,1.31h-.79l-3.08,3a.67.67,0,0,1-.15.14.81.81,0,0,1-.36.12H297.5a.67.67,0,1,1,0-1.32h.93l3.15-3.07h0l.05,0h0l0,0,0,0h0a.77.77,0,0,1,.34-.08h1.05m0-.3h-1.05a1,1,0,0,0-.48.12h0l-.06,0,0,0h0l0,0-.07,0h0l0,0-3.06,3h-.8a1,1,0,1,0,0,1.91h1.28a1,1,0,0,0,.5-.18,1.24,1.24,0,0,0,.21-.18l3-2.91h.66a1,1,0,1,0,0-1.91Z" transform="translate(-195.55 -54.46)"/><path class="cls-15" d="M300.18,163.14V163a.45.45,0,0,0-.89,0v1s0,0,0,0Z" transform="translate(-195.55 -54.46)"/><path class="cls-15" d="M303.13,162.2a.66.66,0,1,1,0,1.31h-.79l-3.08,3a.67.67,0,0,1-.15.14.81.81,0,0,1-.36.12H297.5a.67.67,0,1,1,0-1.32h.93l3.15-3.07h0l.05,0h0l0,0,0,0h0a.77.77,0,0,1,.34-.08h1.05m0-.3h-1.05a1,1,0,0,0-.48.12h0l-.06,0,0,0h0l0,0-.07,0h0l0,0-3.06,3h-.8a1,1,0,1,0,0,1.91h1.28a1,1,0,0,0,.5-.18,1.24,1.24,0,0,0,.21-.18l3-2.91h.66a1,1,0,1,0,0-1.91Z" transform="translate(-195.55 -54.46)"/><text class="cls-5" transform="translate(110.91 111.87)">扶手电梯</text><text class="cls-5" transform="translate(95.16 172.93)">卫生间</text><path class="cls-14" d="M295.52,208.43a1,1,0,0,0-1.15,1.16v8a1,1,0,0,0,1.1,1.1h8a1,1,0,0,0,1.11-1.1v-8a1,1,0,0,0-1.13-1.16Z" transform="translate(-195.55 -54.46)"/><path class="cls-15" d="M301.69,210.25a.55.55,0,0,1,.55.55.55.55,0,0,1-.55.55.55.55,0,0,1-.55-.55A.54.54,0,0,1,301.69,210.25Z" transform="translate(-195.55 -54.46)"/><path class="cls-15" d="M301.69,210.8" transform="translate(-195.55 -54.46)"/><path class="cls-15" d="M301.1,211.46h1.18c.53,0,.7.13.7.71v1.69a.22.22,0,1,1-.44,0l0-1.55h-.11v4.23a.31.31,0,1,1-.61,0l0-2.45h-.12l0,2.45a.3.3,0,1,1-.6,0v-4.23h-.12l0,1.55a.23.23,0,1,1-.45,0v-1.69C300.39,211.59,300.57,211.46,301.1,211.46Z" transform="translate(-195.55 -54.46)"/><path class="cls-15" d="M297.52,210.25a.55.55,0,0,1,.55.55.55.55,0,0,1-.55.55.55.55,0,0,1-.55-.55A.54.54,0,0,1,297.52,210.25Z" transform="translate(-195.55 -54.46)"/><path class="cls-15" d="M297.52,210.8" transform="translate(-195.55 -54.46)"/><path class="cls-15" d="M296,213.5l.48-1.55a.75.75,0,0,1,.76-.49h.51a.76.76,0,0,1,.77.49l.47,1.55c.1.34-.29.45-.39.14l-.5-1.42h-.06s.66,2.55.69,2.64,0,.08-.06.08h-.57v1.67a.25.25,0,0,1-.51,0v-1.68h-.19v1.68a.25.25,0,1,1-.51,0v-1.67h-.57s-.07,0,0-.08.68-2.64.68-2.64h-.06l-.5,1.42C296.31,214,295.93,213.84,296,213.5Z" transform="translate(-195.55 -54.46)"/><path class="cls-15" d="M299.41,216.6a.26.26,0,0,0,.26.27h0a.27.27,0,0,0,.27-.27v-6.09a.27.27,0,0,0-.27-.26h0a.26.26,0,0,0-.26.26Z" transform="translate(-195.55 -54.46)"/><rect class="cls-14" x="249.39" y="155.54" width="10.25" height="10.25" rx="1.19" ry="1.19"/><path class="cls-15" d="M450.16,213.23a.45.45,0,0,1-.45.45.45.45,0,1,1,0-.89A.45.45,0,0,1,450.16,213.23Z" transform="translate(-195.55 -54.46)"/><path class="cls-14" d="M447.47,218.17a.81.81,0,1,1,0-1.61h.86l3.11-3h0l.05,0,0,0,0,0,.06,0h0a1,1,0,0,1,.41-.1h1.05a.81.81,0,1,1,0,1.62h-.72l-3,2.95a1,1,0,0,1-.19.16.9.9,0,0,1-.43.16h-1.26Z" transform="translate(-195.55 -54.46)"/><path class="cls-15" d="M453.1,213.43a.66.66,0,1,1,0,1.32h-.79l-3.08,3a.67.67,0,0,1-.15.14.72.72,0,0,1-.36.13h-1.25a.66.66,0,1,1,0-1.31h.92l3.15-3.07h0l.05,0h0l0,0,0,0h0a.67.67,0,0,1,.34-.09h1.05m0-.29h-1.05a1.13,1.13,0,0,0-.48.11h0l-.06,0,0,0h0l0,0s0,0-.06.05h0l0,0-3.06,3h-.8a1,1,0,1,0,0,1.91h1.28a.92.92,0,0,0,.5-.18.91.91,0,0,0,.21-.18l3-2.91h.66a1,1,0,1,0,0-1.9Z" transform="translate(-195.55 -54.46)"/><path class="cls-15" d="M450.15,214.38v-.19a.45.45,0,0,0-.89,0v1s0,0,0,0Z" transform="translate(-195.55 -54.46)"/><path class="cls-15" d="M453.1,213.43a.66.66,0,1,1,0,1.32h-.79l-3.08,3a.67.67,0,0,1-.15.14.72.72,0,0,1-.36.13h-1.25a.66.66,0,1,1,0-1.31h.92l3.15-3.07h0l.05,0h0l0,0,0,0h0a.67.67,0,0,1,.34-.09h1.05m0-.29h-1.05a1.13,1.13,0,0,0-.48.11h0l-.06,0,0,0h0l0,0s0,0-.06.05h0l0,0-3.06,3h-.8a1,1,0,1,0,0,1.91h1.28a.92.92,0,0,0,.5-.18.91.91,0,0,0,.21-.18l3-2.91h.66a1,1,0,1,0,0-1.9Z" transform="translate(-195.55 -54.46)"/><text class="cls-5" transform="translate(263.81 162.42)">扶手电梯</text><path class="cls-14" d="M347.61,208.63a1,1,0,0,0-1.15,1.16v8a1,1,0,0,0,1.11,1.11h8a1,1,0,0,0,1.11-1.11v-8a1,1,0,0,0-1.13-1.16Z" transform="translate(-195.55 -54.46)"/><path class="cls-15" d="M348,214.75l.87-.87a.26.26,0,0,1,.37.37l-.45.44h1.7a.27.27,0,1,1,0,.54h-1.67l.44.44a.26.26,0,0,1-.37.37l-.87-.86A.29.29,0,0,1,348,214.75Z" transform="translate(-195.55 -54.46)"/><path class="cls-15" d="M350.72,212.07a.5.5,0,1,0-.49-.5.49.49,0,0,0,.49.5" transform="translate(-195.55 -54.46)"/><path class="cls-15" d="M355,214.16H353.8l-1.68-1.95h.44l.76.88a.22.22,0,0,0,.19.09.25.25,0,0,0,.25-.25.24.24,0,0,0-.09-.18l-.82-.95a.25.25,0,0,0-.19-.09h-1.19s-.78.56-.83.61v.7h-.89a.3.3,0,0,0-.16.08.25.25,0,0,0,0,.36.27.27,0,0,0,.16.08h1.07c.33,0,.32-.28.32-.28v-.42l.63.72-.57.57a.38.38,0,0,0-.06.39l.37,1.66a.32.32,0,0,0,.63-.06.19.19,0,0,0,0-.08l-.31-1.37.76-.73.65.72a.49.49,0,0,0,.39.12h1.32a.32.32,0,0,0,.07-.63Z" transform="translate(-195.55 -54.46)"/><text class="cls-5" transform="translate(136.28 171.58)">安全出口</text><path class="cls-14" d="M524.74,207.53a1,1,0,0,0-1.15,1.16v8a1,1,0,0,0,1.1,1.11h8a1,1,0,0,0,1.11-1.11v-8a1,1,0,0,0-1.13-1.16Z" transform="translate(-195.55 -54.46)"/><path class="cls-15" d="M525.14,213.65l.87-.87a.26.26,0,0,1,.37.37l-.45.44h1.7a.27.27,0,1,1,0,.54h-1.68l.44.44a.26.26,0,0,1-.37.37l-.87-.86A.29.29,0,0,1,525.14,213.65Z" transform="translate(-195.55 -54.46)"/><path class="cls-15" d="M527.85,211a.5.5,0,1,0-.49-.5.49.49,0,0,0,.49.5" transform="translate(-195.55 -54.46)"/><path class="cls-15" d="M532.14,213.06h-1.22l-1.68-1.95h.44l.76.88a.25.25,0,0,0,.44-.16.23.23,0,0,0-.08-.18l-.83-1a.24.24,0,0,0-.18-.09h-1.2l-.83.61v.7h-.89a.35.35,0,0,0-.16.08.25.25,0,0,0,0,.36.22.22,0,0,0,.15.08H528a.28.28,0,0,0,.31-.28v-.42l.63.72-.57.57a.38.38,0,0,0-.06.39l.38,1.66a.3.3,0,0,0,.31.26.32.32,0,0,0,.31-.32.22.22,0,0,0,0-.08l-.3-1.37.75-.73.65.72a.49.49,0,0,0,.39.12h1.32a.32.32,0,0,0,.08-.63Z" transform="translate(-195.55 -54.46)"/><text class="cls-5" transform="translate(315.68 169.74)">安全出口</text><path class="cls-14" d="M549.05,207.53a1,1,0,0,0-1.15,1.16v8a1,1,0,0,0,1.11,1.11h8a1,1,0,0,0,1.11-1.11v-8a1,1,0,0,0-1.13-1.16Z" transform="translate(-195.55 -54.46)"/><path class="cls-15" d="M549.46,213.65l.87-.87a.26.26,0,0,1,.37.37l-.45.44H552a.27.27,0,1,1,0,.54h-1.67l.44.44a.26.26,0,0,1-.37.37l-.87-.86A.29.29,0,0,1,549.46,213.65Z" transform="translate(-195.55 -54.46)"/><path class="cls-15" d="M552.16,211a.5.5,0,1,0-.49-.5.49.49,0,0,0,.49.5" transform="translate(-195.55 -54.46)"/><path class="cls-15" d="M556.45,213.06h-1.21l-1.68-1.95H554l.76.88a.22.22,0,0,0,.19.09.25.25,0,0,0,.25-.25.24.24,0,0,0-.09-.18l-.82-1a.25.25,0,0,0-.19-.09h-1.19s-.78.56-.83.61v.7h-.89a.3.3,0,0,0-.16.08.25.25,0,0,0,0,.36.27.27,0,0,0,.16.08h1.07c.33,0,.32-.28.32-.28v-.42l.63.72-.57.57a.38.38,0,0,0-.06.39l.37,1.66a.32.32,0,0,0,.63-.06.22.22,0,0,0,0-.08l-.31-1.37.76-.73.65.72a.48.48,0,0,0,.38.12h1.32a.32.32,0,0,0,.32-.25A.32.32,0,0,0,556.45,213.06Z" transform="translate(-195.55 -54.46)"/><text class="cls-5" transform="translate(345.12 169.74)">安全出口</text><path class="cls-14" d="M569,207.53a1,1,0,0,0-1.15,1.16v8a1,1,0,0,0,1.1,1.11h8a1,1,0,0,0,1.11-1.11v-8a1,1,0,0,0-1.13-1.16Z" transform="translate(-195.55 -54.46)"/><path class="cls-15" d="M575.13,215.67v-3.21a.58.58,0,0,0-.59-.59h-3.21a.58.58,0,0,0-.59.59h0v3.21a.59.59,0,0,0,.59.58h3.22a.57.57,0,0,0,.58-.58Zm-.61,0h-3.17v-3.16h3.17Z" transform="translate(-195.55 -54.46)"/><path class="cls-15" d="M573.73,209.39a.3.3,0,1,1,.6,0v1.27l.32-.4c.23-.25.62.1.38.38l-.79.94a.26.26,0,0,1-.41,0l-.79-.94c-.25-.28.15-.63.37-.38l.33.4Z" transform="translate(-195.55 -54.46)"/><path class="cls-15" d="M571.52,211.36a.31.31,0,1,0,.61,0v-1.27l.33.4c.22.25.62-.1.38-.38l-.8-.94a.26.26,0,0,0-.41,0l-.79.94c-.24.28.16.63.38.38l.32-.4Z" transform="translate(-195.55 -54.46)"/><path class="cls-15" d="M571.89,212.82a.2.2,0,0,1,.21.2.21.21,0,0,1-.21.21.2.2,0,0,1-.2-.21A.2.2,0,0,1,571.89,212.82Z" transform="translate(-195.55 -54.46)"/><path class="cls-15" d="M571.89,213" transform="translate(-195.55 -54.46)"/><path class="cls-15" d="M572.12,213.27h-.45c-.2,0-.26,0-.26.27v.63c0,.13.16.13.16,0l0-.58h0v1.59a.12.12,0,1,0,.23,0v-.92h0v.92a.12.12,0,1,0,.23,0v-1.59h0v.58a.09.09,0,1,0,.17,0v-.63C572.38,213.32,572.31,213.27,572.12,213.27Z" transform="translate(-195.55 -54.46)"/><path class="cls-15" d="M572.93,212.82a.2.2,0,0,1,.21.2.21.21,0,0,1-.21.21.2.2,0,0,1-.2-.21A.2.2,0,0,1,572.93,212.82Z" transform="translate(-195.55 -54.46)"/><path class="cls-15" d="M572.93,213" transform="translate(-195.55 -54.46)"/><path class="cls-15" d="M573.16,213.27h-.45c-.2,0-.26,0-.26.27v.63c0,.13.16.13.16,0l0-.58h0v1.59a.12.12,0,1,0,.23,0v-.92H573v.92a.12.12,0,1,0,.23,0v-1.59h0v.58a.09.09,0,1,0,.17,0v-.63C573.42,213.32,573.36,213.27,573.16,213.27Z" transform="translate(-195.55 -54.46)"/><path class="cls-15" d="M574,212.82a.2.2,0,0,1,.2.2.2.2,0,0,1-.2.21.21.21,0,0,1-.21-.21A.2.2,0,0,1,574,212.82Z" transform="translate(-195.55 -54.46)"/><path class="cls-15" d="M574,213" transform="translate(-195.55 -54.46)"/><path class="cls-15" d="M574.2,213.27h-.45c-.2,0-.26,0-.26.27v.63a.09.09,0,1,0,.17,0v-.58h0v1.59a.12.12,0,1,0,.23,0v-.92h0v.92a.12.12,0,1,0,.23,0v-1.59h0l0,.58c0,.13.16.13.16,0v-.63C574.46,213.32,574.4,213.27,574.2,213.27Z" transform="translate(-195.55 -54.46)"/><text class="cls-5" transform="translate(372.84 169.74)">升降电梯</text><path class="cls-14" d="M601.8,207.53a1,1,0,0,0-1.15,1.16v8a1,1,0,0,0,1.11,1.11h8a1,1,0,0,0,1.1-1.11v-8a1,1,0,0,0-1.13-1.16Z" transform="translate(-195.55 -54.46)"/><path class="cls-15" d="M608,215.67v-3.21a.58.58,0,0,0-.59-.59h-3.21a.58.58,0,0,0-.59.59h0v3.21a.59.59,0,0,0,.59.58h3.22a.57.57,0,0,0,.58-.58Zm-.61,0h-3.17v-3.16h3.17Z" transform="translate(-195.55 -54.46)"/><path class="cls-15" d="M606.57,209.39a.31.31,0,1,1,.61,0v1.27l.32-.4c.23-.25.63.1.38.38l-.79.94a.26.26,0,0,1-.41,0l-.79-.94c-.25-.28.15-.63.38-.38l.32.4Z" transform="translate(-195.55 -54.46)"/><path class="cls-15" d="M604.36,211.36a.31.31,0,1,0,.61,0v-1.27l.33.4c.22.25.62-.1.38-.38l-.8-.94a.26.26,0,0,0-.41,0l-.79.94c-.24.28.16.63.38.38l.32-.4Z" transform="translate(-195.55 -54.46)"/><path class="cls-15" d="M604.73,212.82a.2.2,0,0,1,.21.2.21.21,0,0,1-.21.21.2.2,0,0,1-.2-.21A.2.2,0,0,1,604.73,212.82Z" transform="translate(-195.55 -54.46)"/><path class="cls-15" d="M604.73,213" transform="translate(-195.55 -54.46)"/><path class="cls-15" d="M605,213.27h-.45c-.2,0-.26,0-.26.27v.63a.09.09,0,1,0,.17,0v-.58h0v1.59a.12.12,0,1,0,.23,0v-.92h0v.92a.12.12,0,1,0,.23,0v-1.59h0v.58a.09.09,0,1,0,.17,0v-.63C605.22,213.32,605.16,213.27,605,213.27Z" transform="translate(-195.55 -54.46)"/><path class="cls-15" d="M605.78,212.82a.2.2,0,0,1,.2.2.2.2,0,0,1-.2.21.21.21,0,0,1-.21-.21A.2.2,0,0,1,605.78,212.82Z" transform="translate(-195.55 -54.46)"/><path class="cls-15" d="M605.78,213" transform="translate(-195.55 -54.46)"/><path class="cls-15" d="M606,213.27h-.45c-.2,0-.26,0-.26.27v.63a.09.09,0,1,0,.17,0v-.58h0v1.59a.12.12,0,1,0,.23,0v-.92h0v.92a.12.12,0,1,0,.23,0v-1.59h0l0,.58c0,.13.16.13.16,0v-.63C606.26,213.32,606.2,213.27,606,213.27Z" transform="translate(-195.55 -54.46)"/><path class="cls-15" d="M606.82,212.82a.2.2,0,0,1,.2.2.2.2,0,0,1-.2.21.21.21,0,0,1-.21-.21A.2.2,0,0,1,606.82,212.82Z" transform="translate(-195.55 -54.46)"/><path class="cls-15" d="M606.82,213" transform="translate(-195.55 -54.46)"/><path class="cls-15" d="M607,213.27h-.45c-.19,0-.26,0-.26.27v.63a.09.09,0,1,0,.17,0v-.58h0v1.59a.12.12,0,1,0,.23,0v-.92h.05v.92a.12.12,0,1,0,.23,0v-1.59h0l0,.58c0,.13.16.13.16,0v-.63C607.3,213.32,607.24,213.27,607,213.27Z" transform="translate(-195.55 -54.46)"/><text class="cls-5" transform="translate(405.68 169.74)">升降电梯</text><path class="cls-14" d="M711.68,207.53a1,1,0,0,0-1.15,1.16v8a1,1,0,0,0,1.11,1.11h8a1,1,0,0,0,1.1-1.11v-8a1,1,0,0,0-1.13-1.16Z" transform="translate(-195.55 -54.46)"/><path class="cls-15" d="M717.85,215.67v-3.21a.58.58,0,0,0-.59-.59h-3.21a.58.58,0,0,0-.59.59h0v3.21a.59.59,0,0,0,.59.58h3.22a.57.57,0,0,0,.58-.58Zm-.61,0h-3.17v-3.16h3.17Z" transform="translate(-195.55 -54.46)"/><path class="cls-15" d="M716.45,209.39a.31.31,0,1,1,.61,0v1.27l.32-.4c.23-.25.63.1.38.38l-.79.94a.26.26,0,0,1-.41,0l-.79-.94c-.25-.28.15-.63.38-.38l.32.4Z" transform="translate(-195.55 -54.46)"/><path class="cls-15" d="M714.25,211.36a.3.3,0,1,0,.6,0v-1.27l.33.4c.23.25.62-.1.38-.38l-.79-.94a.27.27,0,0,0-.42,0l-.79.94c-.24.28.16.63.38.38l.32-.4Z" transform="translate(-195.55 -54.46)"/><path class="cls-15" d="M714.62,212.82a.2.2,0,0,1,.2.2.2.2,0,0,1-.2.21.21.21,0,0,1-.21-.21A.2.2,0,0,1,714.62,212.82Z" transform="translate(-195.55 -54.46)"/><path class="cls-15" d="M714.62,213" transform="translate(-195.55 -54.46)"/><path class="cls-15" d="M714.84,213.27h-.45c-.2,0-.26,0-.26.27v.63a.09.09,0,1,0,.17,0v-.58h0v1.59a.12.12,0,1,0,.23,0v-.92h0v.92a.12.12,0,1,0,.23,0v-1.59h0v.58a.09.09,0,1,0,.17,0v-.63C715.1,213.32,715,213.27,714.84,213.27Z" transform="translate(-195.55 -54.46)"/><path class="cls-15" d="M715.66,212.82a.2.2,0,0,1,.2.2.2.2,0,0,1-.2.21.21.21,0,0,1-.21-.21A.2.2,0,0,1,715.66,212.82Z" transform="translate(-195.55 -54.46)"/><path class="cls-15" d="M715.66,213" transform="translate(-195.55 -54.46)"/><path class="cls-15" d="M715.88,213.27h-.45c-.19,0-.26,0-.26.27v.63a.09.09,0,1,0,.17,0v-.58h0v1.59a.12.12,0,1,0,.23,0v-.92h0v.92a.12.12,0,1,0,.23,0v-1.59h0l0,.58c0,.13.16.13.16,0v-.63C716.14,213.32,716.08,213.27,715.88,213.27Z" transform="translate(-195.55 -54.46)"/><path class="cls-15" d="M716.7,212.82a.2.2,0,0,1,.2.2.2.2,0,0,1-.2.21.21.21,0,0,1-.21-.21A.2.2,0,0,1,716.7,212.82Z" transform="translate(-195.55 -54.46)"/><path class="cls-15" d="M716.7,213" transform="translate(-195.55 -54.46)"/><path class="cls-15" d="M716.92,213.27h-.44c-.2,0-.27,0-.27.27v.63a.09.09,0,1,0,.17,0v-.58h0v1.59a.12.12,0,1,0,.23,0l0-.92h0v.92a.12.12,0,1,0,.23,0v-1.59h0l0,.58c0,.13.16.13.16,0v-.63C717.18,213.32,717.12,213.27,716.92,213.27Z" transform="translate(-195.55 -54.46)"/><text class="cls-5" transform="translate(515.56 169.74)">升降电梯</text><path class="cls-14" d="M802.44,207.53a1,1,0,0,0-1.15,1.16v8a1,1,0,0,0,1.11,1.11h8a1,1,0,0,0,1.11-1.11v-8a1,1,0,0,0-1.13-1.16Z" transform="translate(-195.55 -54.46)"/><path class="cls-15" d="M808.61,215.67v-3.21a.58.58,0,0,0-.58-.59h-3.22a.58.58,0,0,0-.58.59h0v3.21a.58.58,0,0,0,.58.58H808a.57.57,0,0,0,.58-.58Zm-.6,0h-3.18v-3.16H808Z" transform="translate(-195.55 -54.46)"/><path class="cls-15" d="M807.22,209.39a.3.3,0,1,1,.6,0v1.27l.33-.4c.23-.25.62.1.38.38l-.8.94a.26.26,0,0,1-.41,0l-.79-.94c-.24-.28.16-.63.38-.38l.32.4Z" transform="translate(-195.55 -54.46)"/><path class="cls-15" d="M805,211.36a.31.31,0,1,0,.61,0v-1.27l.33.4c.22.25.62-.1.37-.38l-.79-.94a.26.26,0,0,0-.41,0l-.79.94c-.24.28.16.63.38.38l.32-.4Z" transform="translate(-195.55 -54.46)"/><path class="cls-15" d="M805.38,212.82a.21.21,0,1,1-.21.2A.21.21,0,0,1,805.38,212.82Z" transform="translate(-195.55 -54.46)"/><path class="cls-15" d="M805.38,213" transform="translate(-195.55 -54.46)"/><path class="cls-15" d="M805.6,213.27h-.44c-.2,0-.27,0-.27.27v.63a.09.09,0,1,0,.17,0l0-.58h0v1.59a.11.11,0,1,0,.22,0l0-.92h0l0,.92a.11.11,0,1,0,.22,0v-1.59h.05v.58a.09.09,0,1,0,.17,0v-.63C805.87,213.32,805.8,213.27,805.6,213.27Z" transform="translate(-195.55 -54.46)"/><path class="cls-15" d="M806.42,212.82a.2.2,0,0,1,.21.2.21.21,0,0,1-.21.21.2.2,0,0,1-.2-.21A.2.2,0,0,1,806.42,212.82Z" transform="translate(-195.55 -54.46)"/><path class="cls-15" d="M806.42,213" transform="translate(-195.55 -54.46)"/><path class="cls-15" d="M806.64,213.27h-.44c-.2,0-.26,0-.26.27v.63c0,.13.16.13.16,0l0-.58h0v1.59a.12.12,0,1,0,.23,0v-.92h0l0,.92a.11.11,0,1,0,.22,0v-1.59h.05v.58a.09.09,0,1,0,.17,0v-.63C806.91,213.32,806.84,213.27,806.64,213.27Z" transform="translate(-195.55 -54.46)"/><path class="cls-15" d="M807.46,212.82a.2.2,0,0,1,.21.2.21.21,0,0,1-.21.21.2.2,0,0,1-.2-.21A.2.2,0,0,1,807.46,212.82Z" transform="translate(-195.55 -54.46)"/><path class="cls-15" d="M807.46,213" transform="translate(-195.55 -54.46)"/><path class="cls-15" d="M807.68,213.27h-.44c-.2,0-.26,0-.26.27v.63c0,.13.16.13.16,0l0-.58h0v1.59a.12.12,0,1,0,.23,0v-.92h0v.92a.12.12,0,1,0,.23,0v-1.59h0v.58a.09.09,0,1,0,.17,0v-.63C808,213.32,807.88,213.27,807.68,213.27Z" transform="translate(-195.55 -54.46)"/><text class="cls-5" transform="translate(605.59 171.89)">升降电梯</text><path class="cls-14" d="M783.59,207.53a1,1,0,0,0-1.15,1.16v8a1,1,0,0,0,1.11,1.11h8a1,1,0,0,0,1.11-1.11v-8a1,1,0,0,0-1.13-1.16Z" transform="translate(-195.55 -54.46)"/><path class="cls-15" d="M784,213.65l.87-.87a.26.26,0,0,1,.37.37l-.45.44h1.7a.27.27,0,1,1,0,.54H784.8l.44.44a.26.26,0,0,1-.37.37l-.87-.86A.29.29,0,0,1,784,213.65Z" transform="translate(-195.55 -54.46)"/><path class="cls-15" d="M786.7,211a.5.5,0,1,0-.49-.5.5.5,0,0,0,.49.5" transform="translate(-195.55 -54.46)"/><path class="cls-15" d="M791,213.06h-1.21l-1.68-1.95h.44l.76.88a.23.23,0,0,0,.19.09.25.25,0,0,0,.25-.25.21.21,0,0,0-.09-.18l-.82-1a.25.25,0,0,0-.19-.09h-1.19l-.83.61v.7h-.89a.35.35,0,0,0-.16.08.25.25,0,0,0,0,.36.27.27,0,0,0,.16.08h1.07c.33,0,.32-.28.32-.28v-.42l.63.72-.57.57a.38.38,0,0,0-.06.39l.37,1.66a.32.32,0,0,0,.63-.06.22.22,0,0,0,0-.08l-.31-1.37.76-.73.65.72a.49.49,0,0,0,.39.12h1.32a.32.32,0,0,0,.07-.63Z" transform="translate(-195.55 -54.46)"/><text class="cls-5" transform="translate(574.54 171.89)">安全出口</text><path class="cls-14" d="M874.32,211a1,1,0,0,0-1.15,1.15v8a1,1,0,0,0,1.11,1.1h8a1,1,0,0,0,1.11-1.1v-8A1,1,0,0,0,882.3,211Z" transform="translate(-195.55 -54.46)"/><path class="cls-15" d="M874.73,217.1l.87-.87a.26.26,0,0,1,.37.37l-.45.45h1.7a.27.27,0,1,1,0,.54h-1.67l.44.45a.26.26,0,0,1-.37.37l-.87-.87A.29.29,0,0,1,874.73,217.1Z" transform="translate(-195.55 -54.46)"/><path class="cls-15" d="M877.43,214.42a.49.49,0,1,0-.49-.49.49.49,0,0,0,.49.49" transform="translate(-195.55 -54.46)"/><path class="cls-15" d="M881.72,216.52h-1.21l-1.68-1.94h.44l.76.89a.25.25,0,1,0,.35-.35l-.82-.94a.22.22,0,0,0-.19-.09h-1.19s-.77.55-.83.61v.7h-.89a.21.21,0,0,0-.16.08.25.25,0,0,0,0,.36.26.26,0,0,0,.16.07h1.07c.33,0,.32-.27.32-.27v-.43l.63.72-.57.57a.38.38,0,0,0-.06.39l.37,1.67a.32.32,0,0,0,.31.25.31.31,0,0,0,.32-.31.28.28,0,0,0,0-.09l-.31-1.36.76-.74.65.73a.49.49,0,0,0,.39.12h1.32a.32.32,0,0,0,.31-.25A.31.31,0,0,0,881.72,216.52Z" transform="translate(-195.55 -54.46)"/><text class="cls-5" transform="translate(676.25 173.93)">安全出口</text><path class="cls-14" d="M840.53,211a1,1,0,0,0-1.15,1.15v8a1,1,0,0,0,1.11,1.1h8a1,1,0,0,0,1.11-1.1v-8a1,1,0,0,0-1.13-1.15Z" transform="translate(-195.55 -54.46)"/><path class="cls-15" d="M840.94,217.1l.87-.87a.26.26,0,0,1,.37.37l-.45.45h1.7a.27.27,0,1,1,0,.54h-1.67l.44.45a.26.26,0,0,1-.37.37l-.87-.87A.29.29,0,0,1,840.94,217.1Z" transform="translate(-195.55 -54.46)"/><path class="cls-15" d="M843.64,214.42a.49.49,0,0,0,0-1,.49.49,0,0,0,0,1" transform="translate(-195.55 -54.46)"/><path class="cls-15" d="M847.93,216.52h-1.21L845,214.57h.44l.76.89a.25.25,0,0,0,.44-.16.28.28,0,0,0-.09-.19l-.82-.94a.22.22,0,0,0-.19-.09h-1.19s-.78.55-.83.61v.7h-.89a.21.21,0,0,0-.16.08.25.25,0,0,0,0,.36.26.26,0,0,0,.16.07h1.07c.33,0,.32-.27.32-.27v-.43l.63.72-.57.57a.38.38,0,0,0-.06.39l.37,1.67a.32.32,0,0,0,.31.25.31.31,0,0,0,.32-.31.28.28,0,0,0,0-.09l-.31-1.36.76-.74.65.73a.48.48,0,0,0,.38.12h1.33a.32.32,0,0,0,.31-.25A.31.31,0,0,0,847.93,216.52Z" transform="translate(-195.55 -54.46)"/><text class="cls-5" transform="translate(637.25 173.95) rotate(-0.05)">安全出口</text><rect class="cls-14" x="649.7" y="123.28" width="10.25" height="10.25" rx="1.19" ry="1.19"/><path class="cls-15" d="M850.47,181a.45.45,0,1,1-.45-.44A.45.45,0,0,1,850.47,181Z" transform="translate(-195.55 -54.46)"/><path class="cls-14" d="M847.78,185.91a.81.81,0,1,1,0-1.61h.86l3.11-3h0l.05,0,0,0,0,0,.05,0h0a1,1,0,0,1,.41-.1h1a.81.81,0,1,1,0,1.62h-.72l-3,3a.74.74,0,0,1-.19.16.9.9,0,0,1-.43.16h-1.26Z" transform="translate(-195.55 -54.46)"/><path class="cls-15" d="M853.41,181.17a.66.66,0,1,1,0,1.32h-.78l-3.08,3a1.07,1.07,0,0,1-.16.14.69.69,0,0,1-.36.13h-1.25a.66.66,0,1,1,0-1.31h.93l3.15-3.07h0l0,0h0l0,0,0,0h0a.69.69,0,0,1,.34-.09h1m0-.29h-1a1.16,1.16,0,0,0-.48.11h0l-.06,0,0,0h0l0,0-.06.06h0l0,0-3.06,3h-.8a1,1,0,1,0,0,1.91h1.28a.92.92,0,0,0,.5-.18.91.91,0,0,0,.21-.18l3-2.91h.66a1,1,0,1,0,0-1.9Z" transform="translate(-195.55 -54.46)"/><path class="cls-15" d="M850.46,182.12v-.19a.44.44,0,1,0-.88,0v1Z" transform="translate(-195.55 -54.46)"/><path class="cls-15" d="M853.41,181.17a.66.66,0,1,1,0,1.32h-.78l-3.08,3a1.07,1.07,0,0,1-.16.14.69.69,0,0,1-.36.13h-1.25a.66.66,0,1,1,0-1.31h.93l3.15-3.07h0l0,0h0l0,0,0,0h0a.69.69,0,0,1,.34-.09h1m0-.29h-1a1.16,1.16,0,0,0-.48.11h0l-.06,0,0,0h0l0,0-.06.06h0l0,0-3.06,3h-.8a1,1,0,1,0,0,1.91h1.28a.92.92,0,0,0,.5-.18.91.91,0,0,0,.21-.18l3-2.91h.66a1,1,0,1,0,0-1.9Z" transform="translate(-195.55 -54.46)"/><text class="cls-5" transform="translate(661.2 130.16)">扶手电梯</text><rect class="cls-14" x="701.08" y="123.28" width="10.25" height="10.25" rx="1.19" ry="1.19"/><path class="cls-15" d="M901.85,181a.45.45,0,1,1-.45-.44A.45.45,0,0,1,901.85,181Z" transform="translate(-195.55 -54.46)"/><path class="cls-14" d="M899.16,185.91a.81.81,0,1,1,0-1.61H900l3.11-3h0l.05,0,0,0,0,0,.05,0h0a1,1,0,0,1,.41-.1h1a.81.81,0,1,1,0,1.62h-.72l-3,3a.74.74,0,0,1-.19.16.9.9,0,0,1-.43.16h-1.26Z" transform="translate(-195.55 -54.46)"/><path class="cls-15" d="M904.79,181.17a.66.66,0,1,1,0,1.32H904l-3.07,3a1.07,1.07,0,0,1-.16.14.69.69,0,0,1-.36.13h-1.25a.66.66,0,1,1,0-1.31h.93l3.15-3.07h0l0,0h0l0,0,0,0h0a.67.67,0,0,1,.34-.09h1m0-.29h-1a1.16,1.16,0,0,0-.48.11h0l-.06,0,0,0h0l0,0-.06.06h0l0,0-3.06,3h-.8a1,1,0,1,0,0,1.91h1.28a.92.92,0,0,0,.5-.18.91.91,0,0,0,.21-.18l3-2.91h.66a1,1,0,1,0,0-1.9Z" transform="translate(-195.55 -54.46)"/><path class="cls-15" d="M901.84,182.12v-.19a.44.44,0,1,0-.88,0v1Z" transform="translate(-195.55 -54.46)"/><path class="cls-15" d="M904.79,181.17a.66.66,0,1,1,0,1.32H904l-3.07,3a1.07,1.07,0,0,1-.16.14.69.69,0,0,1-.36.13h-1.25a.66.66,0,1,1,0-1.31h.93l3.15-3.07h0l0,0h0l0,0,0,0h0a.67.67,0,0,1,.34-.09h1m0-.29h-1a1.16,1.16,0,0,0-.48.11h0l-.06,0,0,0h0l0,0-.06.06h0l0,0-3.06,3h-.8a1,1,0,1,0,0,1.91h1.28a.92.92,0,0,0,.5-.18.91.91,0,0,0,.21-.18l3-2.91h.66a1,1,0,1,0,0-1.9Z" transform="translate(-195.55 -54.46)"/><text class="cls-5" transform="translate(712.57 130.16)">扶手电梯</text><path class="cls-14" d="M1050,207.78a1,1,0,0,0-1.15,1.15v8a1,1,0,0,0,1.11,1.11h8a1,1,0,0,0,1.11-1.11v-8a1,1,0,0,0-1.13-1.15Z" transform="translate(-195.55 -54.46)"/><path class="cls-15" d="M1056.15,215.91V212.7a.58.58,0,0,0-.58-.59h-3.22a.58.58,0,0,0-.58.59h0v3.21a.57.57,0,0,0,.58.58h3.22a.57.57,0,0,0,.58-.58Zm-.6,0h-3.18v-3.15h3.18Z" transform="translate(-195.55 -54.46)"/><path class="cls-15" d="M1054.75,209.63a.31.31,0,1,1,.61,0v1.27l.33-.4c.22-.24.62.1.37.38l-.79.94a.26.26,0,0,1-.41,0l-.79-.94c-.24-.28.16-.63.38-.38l.32.4Z" transform="translate(-195.55 -54.46)"/><path class="cls-15" d="M1052.55,211.6a.31.31,0,1,0,.61,0v-1.27l.32.4c.23.25.62-.1.38-.38l-.79-.94a.28.28,0,0,0-.41,0l-.79,1c-.25.28.15.63.37.37l.33-.4Z" transform="translate(-195.55 -54.46)"/><path class="cls-15" d="M1052.92,213.06a.2.2,0,0,1,.2.21.2.2,0,0,1-.2.2.2.2,0,0,1-.21-.2A.21.21,0,0,1,1052.92,213.06Z" transform="translate(-195.55 -54.46)"/><path class="cls-15" d="M1052.92,213.27" transform="translate(-195.55 -54.46)"/><path class="cls-15" d="M1053.14,213.51h-.44c-.2,0-.27.06-.27.27v.64a.09.09,0,1,0,.17,0v-.58h.05v1.58a.11.11,0,1,0,.22,0l0-.92h0v.92a.12.12,0,1,0,.23,0v-1.58h0l0,.58a.08.08,0,1,0,.16,0v-.64C1053.4,213.57,1053.34,213.51,1053.14,213.51Z" transform="translate(-195.55 -54.46)"/><path class="cls-15" d="M1054,213.06a.21.21,0,1,1-.21.21A.21.21,0,0,1,1054,213.06Z" transform="translate(-195.55 -54.46)"/><path class="cls-15" d="M1054,213.27" transform="translate(-195.55 -54.46)"/><path class="cls-15" d="M1054.18,213.51h-.44c-.2,0-.27.06-.27.27v.64a.09.09,0,1,0,.17,0v-.58h0v1.58a.11.11,0,1,0,.22,0l0-.92h0l0,.92a.11.11,0,1,0,.22,0v-1.58h0l0,.58a.08.08,0,1,0,.16,0v-.64C1054.44,213.57,1054.38,213.51,1054.18,213.51Z" transform="translate(-195.55 -54.46)"/><path class="cls-15" d="M1055,213.06a.21.21,0,1,1-.21.21A.21.21,0,0,1,1055,213.06Z" transform="translate(-195.55 -54.46)"/><path class="cls-15" d="M1055,213.27" transform="translate(-195.55 -54.46)"/><path class="cls-15" d="M1055.22,213.51h-.44c-.2,0-.27.06-.27.27v.64a.09.09,0,1,0,.17,0l0-.58h0v1.58a.11.11,0,1,0,.22,0l0-.92h0l0,.92a.11.11,0,1,0,.22,0v-1.58h0v.58a.09.09,0,1,0,.17,0v-.64C1055.49,213.57,1055.42,213.51,1055.22,213.51Z" transform="translate(-195.55 -54.46)"/><text class="cls-5" transform="translate(847.52 171.34)">升降电梯</text><path class="cls-14" d="M1074.67,212.4a1,1,0,0,0-1.15,1.16v8a1,1,0,0,0,1.11,1.11h8a1,1,0,0,0,1.1-1.11v-8a1,1,0,0,0-1.13-1.16Z" transform="translate(-195.55 -54.46)"/><path class="cls-15" d="M1075.07,218.52l.88-.87a.26.26,0,1,1,.36.37l-.44.44h1.7a.27.27,0,1,1,0,.54h-1.68l.45.44a.27.27,0,0,1-.38.37l-.86-.86A.29.29,0,0,1,1075.07,218.52Z" transform="translate(-195.55 -54.46)"/><path class="cls-15" d="M1077.78,215.83a.49.49,0,1,0-.49-.49.49.49,0,0,0,.49.49" transform="translate(-195.55 -54.46)"/><path class="cls-15" d="M1082.07,217.93h-1.21l-1.68-2h.44l.76.88a.25.25,0,0,0,.19.09.24.24,0,0,0,.24-.25.23.23,0,0,0-.08-.18l-.82-1a.26.26,0,0,0-.19-.09h-1.19l-.84.61v.7h-.88a.3.3,0,0,0-.16.08.25.25,0,0,0,0,.36.2.2,0,0,0,.16.07h1.07c.33,0,.32-.27.32-.27v-.42l.64.72-.57.57a.38.38,0,0,0-.06.39l.37,1.66a.32.32,0,0,0,.31.26.33.33,0,0,0,.32-.32s0-.06,0-.08l-.31-1.37.76-.73.65.72a.45.45,0,0,0,.38.12H1082a.33.33,0,0,0,.32-.25A.32.32,0,0,0,1082.07,217.93Z" transform="translate(-195.55 -54.46)"/><text class="cls-5" transform="translate(877.06 173.88)">安全出口</text><text class="cls-5" transform="translate(861.57 207.59)">卫生间</text><path class="cls-14" d="M1061.93,245.29a1,1,0,0,0-1.15,1.15v8a1,1,0,0,0,1.1,1.1h8a1,1,0,0,0,1.11-1.1v-8a1,1,0,0,0-1.13-1.15Z" transform="translate(-195.55 -54.46)"/><path class="cls-15" d="M1068.1,247.1a.55.55,0,0,1,.55.55.55.55,0,0,1-.55.55.54.54,0,0,1-.55-.55A.55.55,0,0,1,1068.1,247.1Z" transform="translate(-195.55 -54.46)"/><path class="cls-15" d="M1068.1,247.65" transform="translate(-195.55 -54.46)"/><path class="cls-15" d="M1067.51,248.31h1.18c.53,0,.7.14.7.72v1.68a.22.22,0,1,1-.44,0l0-1.54h-.11v4.23a.31.31,0,1,1-.61,0l0-2.46H1068l0,2.46a.3.3,0,1,1-.6,0v-4.23h-.12l0,1.54a.22.22,0,1,1-.44,0V249C1066.8,248.45,1067,248.31,1067.51,248.31Z" transform="translate(-195.55 -54.46)"/><path class="cls-15" d="M1063.93,247.1a.55.55,0,0,1,.55.55.55.55,0,0,1-.55.55.54.54,0,0,1-.55-.55A.55.55,0,0,1,1063.93,247.1Z" transform="translate(-195.55 -54.46)"/><path class="cls-15" d="M1063.93,247.65" transform="translate(-195.55 -54.46)"/><path class="cls-15" d="M1062.43,250.36l.48-1.56a.76.76,0,0,1,.76-.49h.51a.78.78,0,0,1,.77.49l.47,1.56c.1.33-.29.45-.39.14l-.5-1.42h-.06s.66,2.54.69,2.64a.06.06,0,0,1-.06.08h-.57v1.67a.25.25,0,1,1-.51,0v-1.69h-.19v1.69a.25.25,0,1,1-.51,0V251.8h-.57a.05.05,0,0,1,0-.08c0-.1.68-2.64.68-2.64h-.06l-.5,1.42C1062.72,250.81,1062.34,250.69,1062.43,250.36Z" transform="translate(-195.55 -54.46)"/><path class="cls-15" d="M1065.81,253.46a.27.27,0,0,0,.27.26h0a.27.27,0,0,0,.27-.26v-6.09a.27.27,0,0,0-.27-.27h0a.27.27,0,0,0-.27.27Z" transform="translate(-195.55 -54.46)"/></svg>